<svg xmlns="http://www.w3.org/2000/svg" width="94" height="35" viewBox="0 0 94 35">
    <g fill="none" fill-rule="evenodd">
        <g fill-rule="nonzero">
            <g>
                <g>
                    <path fill="#1A3E67" d="M52.11 12.547V1.18c0-.609.07-.661.689-.66 1.766 0 3.534.012 5.302 0 .56 0 .901.178 1.144.723.33.742.777 1.432 1.174 2.143.419.748.848 1.493 1.26 2.241.453.811.903 1.623 1.35 2.435.413.75.826 1.504 1.24 2.254.414.75.81 1.48 1.223 2.216.412.736.87 1.511 1.291 2.275.28.509.404.551.786.098.277-.353.523-.73.736-1.125.42-.717.81-1.452 1.229-2.17.419-.718.848-1.39 1.264-2.092.415-.702.807-1.417 1.218-2.123.61-1.045 1.225-2.085 1.836-3.128L75.04 2.23c.23-.403.444-.817.689-1.212.185-.326.54-.518.914-.494 1.697.014 3.394 0 5.09-.015.43 0 .648.199.65.643v22.226c0 .5-.227.679-.718.609-1.408-.22-2.817-.437-4.226-.648-.548-.083-.726-.289-.726-.893V11.587v-.297c0-.271-.036-.56-.34-.587-.117-.01-.285.25-.385.414-.42.697-.82 1.408-1.235 2.11-.416.7-.86 1.42-1.286 2.132-.426.713-.859 1.452-1.286 2.18-.428.728-.88 1.504-1.32 2.254-.543.92-1.07 1.854-1.651 2.75-.179.214-.435.348-.713.372-1.098.083-2.206.12-3.302.152-.361.024-.7-.179-.848-.509-.587-1.087-1.224-2.15-1.833-3.224-.393-.697-.768-1.406-1.159-2.107-.451-.81-.912-1.612-1.366-2.421-.405-.725-.79-1.46-1.208-2.175-.339-.579-.7-1.144-1.07-1.697-.076-.092-.192-.14-.31-.127-.089.039-.148.193-.17.307-.026.148-.036.299-.031.45 0 3.929.004 7.86.012 11.79 0 .372-.109.585-.496.653-1.39.24-2.775.497-4.167.73-.139-.007-.266-.082-.34-.2-.07-.168-.103-.35-.094-.533V12.55l-.005-.004zM11.861 0c.697.098 1.955.244 3.202.462.877.133 1.741.342 2.582.624 1.05.395 2.078.848 3.078 1.357.73.358 1.412.816 2.123 1.213.448.252.538.54.299.983-.576 1.065-1.132 2.14-1.714 3.2-.133.244-.299.54-.523.636-.139.061-.426-.198-.636-.34-.982-.625-1.948-1.282-2.949-1.876-.437-.234-.898-.418-1.376-.548-2.3-.726-4.646-.977-7.023-.509-1.067.209-2.084.589-2.854 1.454-.808.906-.55 2.223.572 2.683 1.405.573 2.903.679 4.386.848 1.866.22 3.745.355 5.6.679 1.147.214 2.266.562 3.333 1.037 1.23.507 2.26 1.4 2.937 2.545 1.153 1.994 1.47 4.106.829 6.358-.437 1.527-1.21 2.831-2.452 3.805-.699.519-1.446.968-2.232 1.343-2.073 1.05-4.353 1.221-6.603 1.262-1.55.029-3.13-.217-4.653-.548-1.423-.31-2.803-.849-4.172-1.373-.877-.34-1.697-.807-2.545-1.215-.192-.091-.394-.16-.587-.242-.48-.209-.584-.518-.392-1.001.246-.615.461-1.242.692-1.867.214-.582.417-1.167.652-1.74.073-.17.19-.317.339-.427.115-.069.256-.077.378-.022 1.358 1.071 2.937 1.697 4.54 2.301 1.63.642 3.344 1.047 5.09 1.203 1.469.091 2.94-.135 4.314-.663.908-.324 1.688-.928 2.228-1.726.436-.624.394-1.614-.214-2.063-.372-.274-.792-.478-1.238-.6-2.332-.625-4.734-.773-7.127-.993-1.766-.17-3.507-.43-5.156-1.09-1.16-.46-2.16-1.247-2.885-2.263C.504 11.226.138 9.354.42 7.384.742 5.131 1.816 3.278 3.75 1.98 4.819 1.262 5.99.845 7.223.49 8.562.102 9.93.154 11.862 0z" transform="translate(-83 -4190) translate(83 4159) translate(0 31)"/>
                    <path fill="#D9241D" d="M.447 26.004c.233.06.46.14.679.241.743.423 1.459.89 2.206 1.3.602.33 1.231.618 1.866.901.422.19.854.355 1.295.497.79.256 1.581.51 2.384.72 1.007.264 2.022.504 3.044.717.648.136 1.311.2 1.964.31 3.03.51 6.085.442 9.136.364 1.211-.03 2.42-.216 3.627-.34 1.979-.213 3.962-.405 5.939-.678 1.313-.17 2.61-.472 3.914-.706.458-.081.925-.122 1.383-.207 1.44-.268 2.885-.553 4.32-.825.458-.086.923-.137 1.381-.225 1.607-.307 3.209-.631 4.816-.933 1.651-.31 3.303-.607 4.956-.895.541-.093 1.094-.13 1.639-.215 1.697-.267 3.393-.574 5.099-.804 1.176-.16 2.375-.17 3.544-.34 2.808-.34 5.64-.449 8.465-.327 1.867.06 3.748.254 5.613.456 1.258.141 2.509.345 3.747.611.96.202 1.893.531 2.835.813.526.156 1.048.324 1.57.499.693.234 1.39.458 2.073.724.436.182.848.417 1.226.7-.297.025-.596.025-.894 0-.86-.14-1.713-.323-2.57-.474-3.165-.553-6.361-.54-9.556-.51-1.92.021-3.842.103-5.76.232-1.62.108-3.237.286-4.847.498-2.224.296-4.444.633-6.661.988-2.036.326-4.062.692-6.092 1.05-1.832.323-3.663.664-5.495.99-1.987.352-3.97.717-5.961 1.04-2.241.363-4.491.678-6.736 1.018-3.435.534-6.905.805-10.38.809-1.867 0-3.764.092-5.62-.32-.314-.07-.649-.052-.968-.1-1.408-.218-2.833-.366-4.216-.693-1.337-.317-2.633-.811-3.942-1.25-.602-.195-1.192-.426-1.766-.693-.821-.394-1.624-.825-2.416-1.274-.651-.362-1.282-.758-1.89-1.188C2.53 27.862 1.7 27.19.853 26.537c-.16-.122-.323-.24-.484-.361l.078-.172z" transform="translate(-83 -4190) translate(83 4159) translate(0 31)"/>
                    <path fill="#1A3E67" d="M26.725 13.584V1.16c0-.567.057-.633.63-.635h4.326c.487 0 .59.11.59.61v19.633c0 1.13.106 1.235 1.229 1.233 5.328 0 10.657-.003 15.987-.008.417 0 .6.152.599.565v1.993c0 .413-.202.67-.618.726-1.736.238-3.47.484-5.207.701-1.122.141-2.245.267-3.372.351-1.379.105-2.761.18-4.147.228-3.078.105-6.156.186-9.235.27-.689.018-.787-.092-.787-.77V13.583h.005zM54.926 31.81c.246-.042.49-.088.735-.127 1.882-.303 3.76-.624 5.645-.9 1.885-.277 3.806-.51 5.706-.776 3.694-.524 7.418-.808 11.148-.848 2.133-.028 4.266.077 6.387.317 2.18.228 4.336.64 6.447 1.232.764.222 1.605.32 2.267.872.17.148.473.15.711.275-.405.117-.836.101-1.232-.044-.217-.095-.445-.165-.679-.207-2.32-.321-4.64-.63-6.982-.805-3.367-.26-6.749-.26-10.116 0-1.83.146-3.668.202-5.497.353-2.576.214-5.145.51-7.72.711-1.972.153-3.95.22-5.927.304-.297.014-.6-.1-.901-.154l.008-.202z" transform="translate(-83 -4190) translate(83 4159) translate(0 31)"/>
                </g>
            </g>
        </g>
    </g>
</svg>
